<?xml version="1.0" standalone="no"?>
<!DOCTYPE svg PUBLIC "-//W3C//DTD SVG 20010904//EN"
 "http://www.w3.org/TR/2001/REC-SVG-20010904/DTD/svg10.dtd">
<svg version="1.0" xmlns="http://www.w3.org/2000/svg"
 width="78.000000pt" height="78.000000pt" viewBox="0 0 78.000000 78.000000"
 preserveAspectRatio="xMidYMid meet">
<metadata>
Created by potrace 1.11, written by Peter Selinger 2001-2013
</metadata>
<g transform="translate(0.000000,78.000000) scale(0.100000,-0.100000)"
fill="#000000" stroke="none">
<path d="M360 675 c0 -10 -10 -15 -30 -15 -20 0 -30 -5 -30 -15 0 -10 -10 -15
-30 -15 -20 0 -30 -5 -30 -15 0 -10 10 -15 30 -15 20 0 30 5 30 15 0 10 10 15
30 15 20 0 30 5 30 15 0 12 17 15 90 15 73 0 90 -3 90 -15 0 -10 10 -15 30
-15 20 0 30 -5 30 -15 0 -8 7 -15 15 -15 8 0 15 -7 15 -15 0 -8 7 -15 15 -15
10 0 15 -10 15 -30 0 -20 5 -30 15 -30 13 0 15 -20 15 -120 0 -100 -2 -120
-15 -120 -10 0 -15 -10 -15 -30 0 -20 -5 -30 -15 -30 -8 0 -15 -7 -15 -15 0
-8 -7 -15 -15 -15 -8 0 -15 -7 -15 -15 0 -11 -12 -15 -45 -15 -33 0 -45 -4
-45 -15 0 -13 -23 -15 -150 -15 -127 0 -150 2 -150 15 0 10 -10 15 -30 15 -27
0 -30 3 -30 30 0 20 -5 30 -15 30 -10 0 -15 10 -15 30 0 20 -5 30 -15 30 -12
0 -15 17 -15 90 0 73 3 90 15 90 10 0 15 10 15 30 0 20 5 30 15 30 8 0 15 7
15 15 0 8 7 15 15 15 8 0 15 7 15 15 0 8 7 15 15 15 8 0 15 7 15 15 0 8 -7 15
-15 15 -8 0 -15 -7 -15 -15 0 -8 -7 -15 -15 -15 -8 0 -15 -7 -15 -15 0 -8 -7
-15 -15 -15 -8 0 -15 -7 -15 -15 0 -8 -7 -15 -15 -15 -10 0 -15 -10 -15 -30 0
-20 -5 -30 -15 -30 -12 0 -15 -17 -15 -90 0 -73 3 -90 15 -90 10 0 15 -10 15
-30 0 -20 5 -30 15 -30 10 0 15 -10 15 -30 0 -20 5 -30 15 -30 8 0 15 -7 15
-15 0 -10 10 -15 30 -15 20 0 30 -5 30 -15 0 -13 23 -15 150 -15 127 0 150 2
150 15 0 11 12 15 45 15 33 0 45 4 45 15 0 8 7 15 15 15 8 0 15 7 15 15 0 8 7
15 15 15 8 0 15 7 15 15 0 8 7 15 15 15 10 0 15 10 15 30 0 20 5 30 15 30 13
0 15 20 15 120 0 100 -2 120 -15 120 -10 0 -15 10 -15 30 0 20 -5 30 -15 30
-8 0 -15 7 -15 15 0 8 -7 15 -15 15 -8 0 -15 7 -15 15 0 8 -7 15 -15 15 -8 0
-15 7 -15 15 0 10 -10 15 -30 15 -20 0 -30 5 -30 15 0 12 -17 15 -90 15 -73 0
-90 -3 -90 -15z"/>
<path d="M480 585 c0 -10 10 -15 30 -15 20 0 30 5 30 15 0 10 -10 15 -30 15
-20 0 -30 -5 -30 -15z"/>
<path d="M570 525 c0 -8 7 -15 15 -15 8 0 15 7 15 15 0 8 -7 15 -15 15 -8 0
-15 -7 -15 -15z"/>
<path d="M210 495 c0 -8 7 -15 15 -15 8 0 15 7 15 15 0 8 -7 15 -15 15 -8 0
-15 -7 -15 -15z"/>
<path d="M360 495 c0 -10 -10 -15 -30 -15 -27 0 -30 -3 -30 -30 0 -20 -5 -30
-15 -30 -10 0 -15 -10 -15 -30 0 -20 5 -30 15 -30 10 0 15 -10 15 -30 0 -20 5
-30 15 -30 8 0 15 -7 15 -15 0 -12 15 -15 75 -15 60 0 75 3 75 15 0 8 7 15 15
15 8 0 15 7 15 15 0 8 7 15 15 15 12 0 15 13 15 60 0 47 -3 60 -15 60 -8 0
-15 7 -15 15 0 8 -7 15 -15 15 -8 0 -15 7 -15 15 0 12 -13 15 -60 15 -47 0
-60 -3 -60 -15z"/>
<path d="M150 285 c0 -8 7 -15 15 -15 8 0 15 7 15 15 0 8 -7 15 -15 15 -8 0
-15 -7 -15 -15z"/>
<path d="M600 255 c0 -8 7 -15 15 -15 8 0 15 7 15 15 0 8 -7 15 -15 15 -8 0
-15 -7 -15 -15z"/>
<path d="M300 195 c0 -8 7 -15 15 -15 8 0 15 7 15 15 0 8 -7 15 -15 15 -8 0
-15 -7 -15 -15z"/>
</g>
</svg>
